<svg width="20" height="20" viewBox="0 0 20 20" fill="none" xmlns="http://www.w3.org/2000/svg">
<path d="M18.3337 10.0001C18.3337 14.6025 14.6027 18.3334 10.0003 18.3334C5.39795 18.3334 1.66699 14.6025 1.66699 10.0001C1.66699 5.39771 5.39795 1.66675 10.0003 1.66675C14.6027 1.66675 18.3337 5.39771 18.3337 10.0001Z" stroke="black" stroke-width="1.25"/>
<path d="M11.6667 8.43974C11.6667 8.78492 11.9465 9.06474 12.2917 9.06474C12.6368 9.06474 12.9167 8.78492 12.9167 8.43974H12.2917H11.6667ZM8.125 11.5605C8.125 11.2153 7.84518 10.9355 7.5 10.9355C7.15482 10.9355 6.875 11.2153 6.875 11.5605H7.5H8.125ZM10.625 5.83325C10.625 5.48807 10.3452 5.20825 10 5.20825C9.65482 5.20825 9.375 5.48807 9.375 5.83325L10 5.83325L10.625 5.83325ZM9.375 14.1666C9.375 14.5118 9.65482 14.7916 10 14.7916C10.3452 14.7916 10.625 14.5118 10.625 14.1666H10H9.375ZM10 9.88007V9.25507C9.20651 9.25507 8.78588 9.1285 8.57686 8.98857C8.42136 8.88447 8.33333 8.74233 8.33333 8.43974H7.70833H7.08333C7.08333 9.0652 7.3078 9.64323 7.88147 10.0273C8.40162 10.3755 9.12682 10.5051 10 10.5051V9.88007ZM7.70833 8.43974H8.33333C8.33333 8.22269 8.45201 7.97341 8.74912 7.75555C9.04586 7.53797 9.48608 7.38436 10 7.38436V6.75936V6.13436C9.24827 6.13436 8.54265 6.35692 8.00997 6.74751C7.47766 7.13783 7.08333 7.72875 7.08333 8.43974H7.70833ZM10 6.75936V7.38436C10.5139 7.38436 10.9541 7.53797 11.2509 7.75555C11.548 7.97341 11.6667 8.22269 11.6667 8.43974H12.2917H12.9167C12.9167 7.72875 12.5223 7.13783 11.99 6.74751C11.4573 6.35692 10.7517 6.13436 10 6.13436V6.75936ZM12.5 11.5605H11.875C11.875 11.9236 11.7259 12.1478 11.4474 12.3141C11.131 12.503 10.634 12.6158 10 12.6158V13.2408V13.8658C10.7467 13.8658 11.4997 13.7386 12.0881 13.3874C12.7144 13.0135 13.125 12.3976 13.125 11.5605H12.5ZM10 13.2408V12.6158C9.41686 12.6158 8.91698 12.4559 8.58089 12.23C8.24089 12.0014 8.125 11.7529 8.125 11.5605H7.5H6.875C6.875 12.2961 7.31876 12.8877 7.88358 13.2674C8.45231 13.6497 9.20243 13.8658 10 13.8658V13.2408ZM10 9.88007V10.5051C10.7985 10.5051 11.2733 10.625 11.5351 10.7946C11.74 10.9275 11.875 11.1282 11.875 11.5605H12.5H13.125C13.125 10.7924 12.8433 10.153 12.2149 9.74569C11.6434 9.37524 10.8682 9.25507 10 9.25507V9.88007ZM10 6.75936L10.625 6.75936L10.625 5.83325L10 5.83325L9.375 5.83325L9.375 6.75936L10 6.75936ZM10 13.2408H9.375V14.1666H10H10.625V13.2408H10Z" fill="black"/>
</svg>
