<svg width="16" height="16" viewBox="0 0 16 16" fill="none" xmlns="http://www.w3.org/2000/svg">
<path d="M13.8494 12C14.3489 12 14.7462 11.6856 15.103 11.2461C15.8333 10.3463 14.6342 9.62723 14.1769 9.27507C13.712 8.91708 13.1929 8.71428 12.6667 8.66667M12 7.33333C12.9205 7.33333 13.6667 6.58714 13.6667 5.66667C13.6667 4.74619 12.9205 4 12 4" stroke="#1F2A44" stroke-width="1.11" stroke-linecap="round"/>
<path d="M2.15194 12C1.65241 12 1.25508 11.6856 0.898333 11.2461C0.168028 10.3463 1.36708 9.62723 1.8244 9.27507C2.28929 8.91708 2.80836 8.71428 3.33464 8.66667M3.66797 7.33333C2.74749 7.33333 2.0013 6.58714 2.0013 5.66667C2.0013 4.74619 2.74749 4 3.66797 4" stroke="#1F2A44" stroke-width="1.11" stroke-linecap="round"/>
<path d="M5.3905 10.0741C4.70932 10.4953 2.92329 11.3554 4.0111 12.4316C4.54249 12.9573 5.13432 13.3333 5.87839 13.3333H10.1242C10.8683 13.3333 11.4601 12.9573 11.9915 12.4316C13.0793 11.3554 11.2933 10.4953 10.6121 10.0741C9.01473 9.08638 6.98787 9.08638 5.3905 10.0741Z" stroke="#1F2A44" stroke-width="1.11" stroke-linecap="round" stroke-linejoin="round"/>
<path d="M10.3346 5.00002C10.3346 6.28868 9.28997 7.33335 8.0013 7.33335C6.71264 7.33335 5.66797 6.28868 5.66797 5.00002C5.66797 3.71136 6.71264 2.66669 8.0013 2.66669C9.28997 2.66669 10.3346 3.71136 10.3346 5.00002Z" stroke="#1F2A44" stroke-width="1.11"/>
</svg>
